<?xml version="1.0" encoding="UTF-8"?>
<svg width="221px" height="28px" viewBox="0 0 221 28" version="1.1" xmlns="http://www.w3.org/2000/svg" xmlns:xlink="http://www.w3.org/1999/xlink">
    <!-- Generator: Sketch 53.2 (72643) - https://sketchapp.com -->
    <title>Hikvision Logo-R</title>
    <desc>Created with Sketch.</desc>
    <g id="h5" stroke="none" stroke-width="1" fill="none" fill-rule="evenodd">
        <g id="Hikvision-Logo-R">
            <g id="分组">
                <path d="M122.858702,12.998374 C119.057775,8.05853659 122.130381,0.364227642 129.072194,0.273170732 L143.183419,0.273170732 L141.908857,3.71056911 L134.443563,3.71056911 C132.986921,3.71056911 131.939959,3.71056911 130.506076,3.71056911 C128.616993,3.73333333 127.547271,6.05528455 128.616993,7.46666667 C130.369516,10.1756098 133.373841,12.0650407 135.240165,14.8422764 C139.314212,20.3284553 135.194645,27.4764228 129.117714,27.4764228 L113.618126,27.4764228 L114.892688,24.0390244 L123.313903,24.0390244 C124.770546,24.0390244 125.703708,24.0390244 127.11483,24.0390244 C129.003913,24.0162602 130.050875,21.6943089 129.072194,20.3056911 C127.524511,17.7788618 124.770546,15.3430894 122.858702,12.998374 L122.858702,12.998374 Z M108.542636,27.5219512 C105.811432,27.5219512 103.558187,27.5219512 100.849743,27.5219512 L110.886921,0.295934959 L118.579815,0.295934959 L108.542636,27.5219512 L108.542636,27.5219512 Z M146.438105,27.5219512 C143.7069,27.5219512 141.453656,27.5219512 138.722451,27.5219512 L148.759629,0.295934959 L156.452523,0.295934959 L146.438105,27.5219512 L146.438105,27.5219512 Z M158.091246,8.53658537 C160.776931,2.86829268 166.421421,-0.136585366 171.656231,0.0227642276 L173.681874,0.0227642276 L173.681874,0.0227642276 L176.435839,0.0227642276 C180.464367,0.204878049 182.899691,3.52845528 183.127291,6.28292683 C183.172812,6.94308943 183.150051,7.5804878 183.081771,8.05853659 C183.013491,8.37723577 182.945211,8.67317073 182.876931,8.99186992 C182.034809,12.497561 180.760247,16.0487805 179.098764,19.2585366 C176.413079,24.9268293 170.768589,27.9317073 165.53378,27.7723577 L163.508136,27.7723577 L163.485376,27.7723577 L160.754171,27.7723577 C156.725644,27.5902439 154.290319,24.2666667 154.085479,21.5121951 C154.039959,20.8520325 154.039959,20.2373984 154.130999,19.7365854 C154.199279,19.4406504 154.267559,19.1219512 154.335839,18.803252 C155.132441,15.297561 156.407003,11.7463415 158.091246,8.53658537 L158.091246,8.53658537 Z M172.657673,2.84552846 L172.657673,2.84552846 C169.812667,2.93658537 167.422863,4.55284553 166.398661,7.21626016 L161.300412,21.0796748 C161.163852,21.398374 161.095572,21.7626016 161.118332,22.1268293 C161.118332,22.1268293 161.118332,22.1268293 161.118332,22.1268293 C161.118332,23.6065041 162.279094,24.8357724 163.712976,24.9495935 L164.464058,24.9495935 C167.309063,24.8585366 169.698867,23.2422764 170.723069,20.5788618 L175.798558,6.71544715 C175.935118,6.39674797 176.003399,6.03252033 175.980639,5.66829268 C175.980639,5.66829268 175.980639,5.66829268 175.980639,5.66829268 C175.980639,4.18861789 174.819876,2.95934959 173.363234,2.84552846 L172.657673,2.84552846 L172.657673,2.84552846 Z M90.6987642,19.0081301 L103.216787,0.295934959 L107.746035,0.295934959 L90.2435633,26.3837398 L90.2435633,26.3837398 C89.7883625,27.0666667 89.0372812,27.499187 88.1723996,27.5447154 L88.0130793,27.5447154 C87.9903193,27.5447154 87.9447992,27.5447154 87.9220391,27.5447154 C87.9220391,27.5447154 87.9447992,27.5447154 87.9447992,27.5447154 L87.6716787,27.5447154 L84.9859938,27.5447154 L83.6659114,27.5447154 L81.5264676,0.318699187 L89.2193615,0.318699187 L90.6987642,19.0081301 L90.6987642,19.0081301 Z M191.229866,9.08292683 L191.207106,8.74146341 L184.265294,27.499187 L180.305046,27.499187 L190.387745,0.273170732 L195.417714,0.273170732 L202.678167,18.6666667 L209.483419,0.273170732 L213.466426,0.273170732 L203.383728,27.499187 L199.742122,27.499187 C198.74068,27.4536585 197.875798,26.8162602 197.488877,25.9284553 L191.229866,9.08292683 L191.229866,9.08292683 Z" id="形状" fill="#6D6E71"></path>
                <path d="M39.6479918,27.5219512 C36.9167868,27.5219512 34.1855819,27.5219512 31.4543769,27.5219512 L41.5143151,0.295934959 L41.7419156,0.295934959 L49.4575695,0.295934959 L49.6851699,0.295934959 L39.6479918,27.5219512 L39.6479918,27.5219512 Z M14.4298661,10.7674797 L24.1711637,10.7674797 L28.0403708,0.273170732 L36.2112255,0.273170732 L26.7885685,25.8373984 L26.7885685,25.8373984 C26.7885685,25.8373984 26.7885685,25.8601626 26.7658084,25.8601626 C26.3788877,26.8162602 25.4684861,27.4764228 24.3760041,27.499187 C22.2365602,27.499187 20.1198764,27.499187 17.9804325,27.499187 L22.7828012,14.4780488 L13.0642636,14.4780488 L8.26189495,27.499187 C5.53069001,27.499187 2.82224511,27.499187 0.0910401648,27.499187 L10.1282183,0.273170732 L18.2990731,0.273170732 L14.4298661,10.7674797 L14.4298661,10.7674797 Z M59.5630278,10.5170732 L72.9004119,0.273170732 L79.000103,0.273170732 L65.3668383,10.7447154 L74.015654,27.499187 L67.0738414,27.499187 C67.0966014,27.499187 67.1193615,27.499187 67.1421215,27.4764228 C66.0723996,27.5447154 65.0937178,26.9300813 64.638517,26.0195122 C64.638517,26.0195122 64.638517,25.996748 64.615757,25.996748 L64.615757,26.0195122 L59.1988671,15.502439 L57.1504634,17.0731707 L53.3040165,27.5219512 C50.5728115,27.5219512 47.8416066,27.5219512 45.1331617,27.5219512 L55.1703399,0.295934959 L63.3411946,0.295934959 L59.5630278,10.5170732 L59.5630278,10.5170732 Z" id="形状" fill="#D71820"></path>
            </g>
            <path d="M216.447992,4.80325203 L216.447992,1.34308943 L217.972915,1.34308943 C218.291555,1.34308943 218.519156,1.36585366 218.678476,1.43414634 C218.837796,1.50243902 218.974356,1.61626016 219.065396,1.75284553 C219.156437,1.91219512 219.201957,2.09430894 219.201957,2.27642276 C219.201957,2.52682927 219.133677,2.73170732 218.974356,2.89105691 C218.815036,3.0504065 218.564676,3.16422764 218.246035,3.2097561 C218.359835,3.27804878 218.450875,3.32357724 218.519156,3.39186992 C218.655716,3.50569106 218.769516,3.66504065 218.906076,3.84715447 L219.497837,4.7804878 L218.928836,4.7804878 L218.473635,4.05203252 C218.337075,3.84715447 218.223275,3.68780488 218.132235,3.57398374 C218.041195,3.4601626 217.972915,3.39186992 217.904634,3.34634146 C217.836354,3.30081301 217.768074,3.27804878 217.699794,3.25528455 C217.654274,3.25528455 217.563234,3.23252033 217.449434,3.23252033 L216.903193,3.23252033 L216.903193,4.7804878 L216.447992,4.7804878 L216.447992,4.80325203 Z M216.903193,2.86829268 L217.881874,2.86829268 C218.086715,2.86829268 218.246035,2.84552846 218.382595,2.8 C218.496395,2.75447154 218.587436,2.68617886 218.655716,2.59512195 C218.723996,2.50406504 218.746756,2.3902439 218.746756,2.27642276 C218.746756,2.11707317 218.678476,1.9804878 218.564676,1.86666667 C218.450875,1.75284553 218.268795,1.70731707 217.995675,1.70731707 L216.903193,1.70731707 L216.903193,2.86829268 Z" id="形状" fill="#6D6E71" fill-rule="nonzero"></path>
            <path d="M217.881874,0.182113821 C216.265911,0.182113821 214.945829,1.50243902 214.945829,3.11869919 C214.945829,4.73495935 216.265911,6.05528455 217.881874,6.05528455 C219.497837,6.05528455 220.81792,4.73495935 220.81792,3.11869919 C220.81792,1.50243902 219.497837,0.182113821 217.881874,0.182113821 Z M217.881874,5.71382114 C216.447992,5.71382114 215.28723,4.55284553 215.28723,3.11869919 C215.28723,1.68455285 216.447992,0.523577236 217.881874,0.523577236 C219.315757,0.523577236 220.476519,1.68455285 220.476519,3.11869919 C220.476519,4.55284553 219.315757,5.71382114 217.881874,5.71382114 Z" id="形状" fill="#6D6E71" fill-rule="nonzero"></path>
        </g>
    </g>
</svg>